REM MD5 3dc29558ff6cbc1e5a2c1c03fc643c29
FILE "Play-Pre Vol. 7 (Japan).bin" BINARY
  TRACK 01 MODE2/2352
    INDEX 01 00:00:00
  TRACK 02 AUDIO
    INDEX 00 63:57:58
    INDEX 01 63:59:58
  TRACK 03 AUDIO
    INDEX 00 65:54:07
    INDEX 01 65:56:07
  TRACK 04 AUDIO
    INDEX 00 66:05:19
    INDEX 01 66:07:19
  TRACK 05 AUDIO
    INDEX 00 66:15:36
    INDEX 01 66:17:36
  TRACK 06 AUDIO
    INDEX 00 66:25:12
    INDEX 01 66:27:12
REM LEADOUT 70:27:55
